<svg width="26" height="26" viewBox="0 0 26 26" fill="none" xmlns="http://www.w3.org/2000/svg">
<g clip-path="url(#clip0_2_67)">
<path fill-rule="evenodd" clip-rule="evenodd" d="M-1.63953e-05 13C-1.70229e-05 5.82036 5.82034 1.76416e-06 13 1.1365e-06C20.1797 5.08827e-07 26 5.82036 26 13C26 20.1797 20.1797 26 13 26C5.82034 26 -1.57676e-05 20.1797 -1.63953e-05 13ZM14.7335 8.30752L19.4258 12.9999L14.7335 17.6922L13.5078 16.4666L16.1077 13.8667L6.93332 13.8667L6.93332 12.1333L16.1079 12.1333L13.5078 9.53325L14.7335 8.30752Z" fill="#17171C"/>
</g>
<defs>
<clipPath id="clip0_2_67">
<rect width="26" height="26" fill="white" transform="translate(26 26) rotate(180)"/>
</clipPath>
</defs>
</svg>
