<svg width="61" height="20" viewBox="0 0 61 20" fill="none" xmlns="http://www.w3.org/2000/svg">
<path d="M0 10C0 4.47715 4.47715 0 10 0H51C56.5229 0 61 4.47715 61 10C61 15.5228 56.5228 20 51 20H10C4.47715 20 0 15.5228 0 10Z" fill="#17171C"/>
<path d="M16.572 14.084C16.268 14.084 16.016 13.992 15.816 13.808C15.624 13.616 15.528 13.38 15.528 13.1C15.528 12.82 15.624 12.588 15.816 12.404C16.016 12.212 16.268 12.116 16.572 12.116C16.868 12.116 17.112 12.212 17.304 12.404C17.496 12.588 17.592 12.82 17.592 13.1C17.592 13.38 17.496 13.616 17.304 13.808C17.112 13.992 16.868 14.084 16.572 14.084Z" fill="#D2CCC3"/>
<path d="M19.7972 6.55998C19.4932 6.55998 19.2412 6.46798 19.0412 6.28398C18.8492 6.09198 18.7532 5.85598 18.7532 5.57598C18.7532 5.29598 18.8492 5.06398 19.0412 4.87998C19.2412 4.68798 19.4932 4.59198 19.7972 4.59198C20.0932 4.59198 20.3372 4.68798 20.5292 4.87998C20.7212 5.06398 20.8172 5.29598 20.8172 5.57598C20.8172 5.85598 20.7212 6.09198 20.5292 6.28398C20.3372 6.46798 20.0932 6.55998 19.7972 6.55998ZM20.6252 15.092C20.6252 15.828 20.4412 16.356 20.0732 16.676C19.7132 17.004 19.1932 17.168 18.5132 17.168H17.7692V15.74H18.2492C18.5052 15.74 18.6852 15.688 18.7892 15.584C18.8932 15.488 18.9452 15.328 18.9452 15.104V7.35198H20.6252V15.092Z" fill="#D2CCC3"/>
<path d="M24.829 14.108C24.285 14.108 23.797 14.012 23.365 13.82C22.933 13.62 22.589 13.352 22.333 13.016C22.085 12.68 21.949 12.308 21.925 11.9H23.617C23.649 12.156 23.773 12.368 23.989 12.536C24.213 12.704 24.489 12.788 24.817 12.788C25.137 12.788 25.385 12.724 25.561 12.596C25.745 12.468 25.837 12.304 25.837 12.104C25.837 11.888 25.725 11.728 25.501 11.624C25.285 11.512 24.937 11.392 24.457 11.264C23.961 11.144 23.553 11.02 23.233 10.892C22.921 10.764 22.649 10.568 22.417 10.304C22.193 10.04 22.081 9.68398 22.081 9.23598C22.081 8.86798 22.185 8.53198 22.393 8.22798C22.609 7.92398 22.913 7.68398 23.305 7.50798C23.705 7.33198 24.173 7.24398 24.709 7.24398C25.501 7.24398 26.133 7.44398 26.605 7.84398C27.077 8.23598 27.337 8.76798 27.385 9.43998H25.777C25.753 9.17598 25.641 8.96798 25.441 8.81598C25.249 8.65598 24.989 8.57598 24.661 8.57598C24.357 8.57598 24.121 8.63198 23.953 8.74398C23.793 8.85598 23.713 9.01198 23.713 9.21198C23.713 9.43598 23.825 9.60798 24.049 9.72798C24.273 9.83998 24.621 9.95598 25.093 10.076C25.573 10.196 25.969 10.32 26.281 10.448C26.593 10.576 26.861 10.776 27.085 11.048C27.317 11.312 27.437 11.664 27.445 12.104C27.445 12.488 27.337 12.832 27.121 13.136C26.913 13.44 26.609 13.68 26.209 13.856C25.817 14.024 25.357 14.108 24.829 14.108Z" fill="#D2CCC3"/>
<path d="M31.7761 14.108C31.1361 14.108 30.5601 13.968 30.0481 13.688C29.5361 13.4 29.1321 12.996 28.8361 12.476C28.5481 11.956 28.4041 11.356 28.4041 10.676C28.4041 9.99598 28.5521 9.39598 28.8481 8.87598C29.1521 8.35598 29.5641 7.95598 30.0841 7.67598C30.6041 7.38798 31.1841 7.24398 31.8241 7.24398C32.4641 7.24398 33.0441 7.38798 33.5641 7.67598C34.0841 7.95598 34.4921 8.35598 34.7881 8.87598C35.0921 9.39598 35.2441 9.99598 35.2441 10.676C35.2441 11.356 35.0881 11.956 34.7761 12.476C34.4721 12.996 34.0561 13.4 33.5281 13.688C33.0081 13.968 32.4241 14.108 31.7761 14.108ZM31.7761 12.644C32.0801 12.644 32.3641 12.572 32.6281 12.428C32.9001 12.276 33.1161 12.052 33.2761 11.756C33.4361 11.46 33.5161 11.1 33.5161 10.676C33.5161 10.044 33.3481 9.55998 33.0121 9.22398C32.6841 8.87998 32.2801 8.70798 31.8001 8.70798C31.3201 8.70798 30.9161 8.87998 30.5881 9.22398C30.2681 9.55998 30.1081 10.044 30.1081 10.676C30.1081 11.308 30.2641 11.796 30.5761 12.14C30.8961 12.476 31.2961 12.644 31.7761 12.644Z" fill="#D2CCC3"/>
<path d="M40.1604 7.25598C40.9524 7.25598 41.5924 7.50798 42.0804 8.01198C42.5684 8.50798 42.8124 9.20398 42.8124 10.1V14H41.1324V10.328C41.1324 9.79998 41.0004 9.39598 40.7364 9.11598C40.4724 8.82798 40.1124 8.68398 39.6564 8.68398C39.1924 8.68398 38.8244 8.82798 38.5524 9.11598C38.2884 9.39598 38.1564 9.79998 38.1564 10.328V14H36.4764V7.35198H38.1564V8.17998C38.3804 7.89198 38.6644 7.66798 39.0084 7.50798C39.3604 7.33998 39.7444 7.25598 40.1604 7.25598Z" fill="#D2CCC3"/>
</svg>
