<svg width="26" height="26" viewBox="0 0 26 26" fill="none" xmlns="http://www.w3.org/2000/svg">
<g clip-path="url(#clip0_13_108)">
<path fill-rule="evenodd" clip-rule="evenodd" d="M13 -1.5827e-05C20.1796 -1.61409e-05 26 5.82034 26 13C26 20.1797 20.1796 26 13 26C5.82029 26 -8.82083e-07 20.1797 -5.68248e-07 13C-2.54411e-07 5.82034 5.82029 -1.55132e-05 13 -1.5827e-05ZM17.6925 14.7335L13.0001 19.4258L8.30776 14.7335L9.53342 13.5078L12.1333 16.1077L12.1333 6.93332L13.8667 6.93332L13.8667 16.1079L16.4668 13.5078L17.6925 14.7335Z" fill="#17171C"/>
</g>
<defs>
<clipPath id="clip0_13_108">
<rect width="26" height="26" fill="white" transform="translate(0 26) rotate(-90)"/>
</clipPath>
</defs>
</svg>
